# xmcd
#
# Track frame offsets:
#	150
#	19312
#	36675
#	49125
#	59550
#	74600
#	91487
#	103912
#	118750
#	130275
#	144900
#	165187
#	183487
#
# Disc length: 2744 seconds
#
# Revision: 1
# Processed by: cddbd v1.5.1PL0 Copyright (c) Steve Scherf et al.
# Submitted via: CDex 1.50Beta5
#
DISCID=c50ab60d
DTITLE=Various Artist - LOVE ME DO
DYEAR=1900
DGENRE=
TTITLE0=高中正義・松任谷由実/Norwegian Wood
TTITLE1=高橋幸宏/We Can Work it Out
TTITLE2=高野寛/In My Life
TTITLE3=The Privates/I Wanna Be Your Man
TTITLE4=鈴木康博/Michelle
TTITLE5=アースシェイカー/Ob-La-Di,Ob-La-Da
TTITLE6=加藤和彦/Honey Pie
TTITLE7=ムーンライダース/Yer Blues
TTITLE8=ちわきまゆみ/A Hard Day's Night
TTITLE9=桐島かれん/The Fool On the Hill
TTITLE10=忌野清志郎&仲井戸麗市/Don't Let Me Down
TTITLE11=田中一郎/Come Togher
TTITLE12=高橋幸宏他/All You Need is Love
EXTD=
EXTT0=
EXTT1=
EXTT2=
EXTT3=
EXTT4=
EXTT5=
EXTT6=
EXTT7=
EXTT8=
EXTT9=
EXTT10=
EXTT11=
EXTT12=
PLAYORDER=
